# xmcd
#
# Track frame offsets:
#	150
#	11479
#	24073
#	36111
#	47683
#	59065
#	71307
#	83361
#	95009
#	110133
#	122324
#	133032
#
# Disc length: 1900 seconds
#
# Revision: 2
# Processed by: cddbd v1.5.2PL0 Copyright (c) Steve Scherf et al.
# Submitted via: audiograbber 1.83.01
#
DISCID=91076a0c
DTITLE=Wanda Jackson - Love Me Forever
DYEAR=1963
DGENRE=Oldies
TTITLE0=Please Love Me Forever
TTITLE1=Funny How Time Slips Away
TTITLE2=Since I Met You, Baby
TTITLE3=Pledging My Love
TTITLE4=The Things I Might Have Been
TTITLE5=May You Never Be Alone
TTITLE6=How Important Can It Be
TTITLE7=I May Never Get To Heaven
TTITLE8=Little Things Mean A Lot
TTITLE9=What Am I Living For
TTITLE10=These Empty Arms
TTITLE11=Have You Ever Been Lonely (Have You Ever Been Blue)
EXTD=
EXTT0=
EXTT1=
EXTT2=
EXTT3=
EXTT4=
EXTT5=
EXTT6=
EXTT7=
EXTT8=
EXTT9=
EXTT10=
EXTT11=
PLAYORDER=
